<svg viewBox="0 0 512 512" xmlns="http://www.w3.org/2000/svg">
  <!-- hard offset shadow (design system: 3px 3px 0 ink, scaled) -->
  <rect x="52" y="52" width="436" height="436" fill="#1e1506"/>
  <!-- paper badge -->
  <rect x="24" y="24" width="436" height="436" fill="#fbf9f8" stroke="#1e1506" stroke-width="12"/>

  <!-- the encore call: three arcs of sound/light -->
  <path d="M127.8 252.7 A126 126 0 0 1 356.2 252.7" fill="none" stroke="#1e1506" stroke-width="13"/>
  <path d="M101.2 218 A166 166 0 0 1 382.8 218" fill="none" stroke="#1e1506" stroke-width="13"/>
  <path d="M81.9 176.4 A206 206 0 0 1 402.1 176.4" fill="none" stroke="#1e1506" stroke-width="13"/>

  <!-- stage glow -->
  <path d="M152 306 A90 90 0 0 1 332 306 Z" fill="#8b1d1d"/>
  <!-- stage floor -->
  <line x1="70" y1="306" x2="414" y2="306" stroke="#1e1506" stroke-width="10"/>

  <!-- the crowd, gathered -->
  <circle cx="82" cy="360" r="24" fill="#1e1506"/>
  <circle cx="162" cy="360" r="24" fill="#1e1506"/>
  <circle cx="242" cy="360" r="24" fill="#1e1506"/>
  <circle cx="322" cy="360" r="24" fill="#7e97a8"/>
  <circle cx="402" cy="360" r="24" fill="#1e1506"/>
</svg>
